<svg width="167" height="216" viewBox="0 0 167 216" fill="none" xmlns="http://www.w3.org/2000/svg">
<path d="M99.4612 0.361115H67.8615C37.0928 0.361115 12.1499 25.3041 12.1499 56.0728V127.292C12.1499 158.061 37.0928 183.004 67.8615 183.004H99.4612C130.23 183.004 155.173 158.061 155.173 127.292V56.0728C155.173 25.3041 130.23 0.361115 99.4612 0.361115Z" fill="#F9DCA6"/>
<path d="M128.114 138.383H119.356C117.302 138.383 115.545 137.113 114.68 135.248C113.821 133.382 112.445 131.802 110.715 130.696C108.986 129.589 106.975 129.001 104.921 129.003H60.5087C58.4598 129.007 56.4547 129.596 54.7302 130.703C53.0058 131.809 51.6342 133.386 50.7774 135.248C49.9124 137.113 48.1554 138.383 46.101 138.383H39.181C32.8016 138.383 26.6925 135.464 22.9081 130.328C15.8881 120.787 12.1083 109.249 12.1226 97.4037V127.273C12.1226 172.392 20.6645 215.639 81.0796 215.639C141.495 215.639 155.146 174.133 155.146 127.273V97.4037C155.16 109.249 151.38 120.787 144.36 130.328C140.603 135.491 134.494 138.383 128.114 138.383Z" fill="#2D2D2D"/>
<path d="M93.1356 152.115H74.0244C71.4364 152.115 68.9543 151.087 67.1243 149.257C65.2942 147.427 64.2661 144.945 64.2661 142.357H102.894C102.894 143.638 102.642 144.907 102.151 146.091C101.661 147.275 100.942 148.351 100.036 149.257C99.1296 150.163 98.0539 150.882 96.87 151.372C95.686 151.863 94.4171 152.115 93.1356 152.115Z" fill="white"/>
<path d="M57.5355 72.4538C54.151 69.611 49.8725 68.0525 45.4525 68.0525C41.0325 68.0525 36.754 69.611 33.3695 72.4538C32.126 73.508 30.3419 73.8324 29.2337 72.9403C28.1254 72.0483 28.3957 69.8858 30.0446 68.5072C34.3618 64.8738 39.8233 62.8815 45.466 62.8815C51.1087 62.8815 56.5701 64.8738 60.8874 68.5072C62.5363 69.9128 62.8066 72.0483 61.6983 72.9403C60.563 73.8594 58.7789 73.508 57.5355 72.4538Z" fill="#2D2D2D"/>
<path d="M133.088 72.4538C129.703 69.611 125.425 68.0525 121.005 68.0525C116.585 68.0525 112.306 69.611 108.922 72.4538C107.679 73.508 105.894 73.8324 104.786 72.9403C103.678 72.0483 103.948 69.8858 105.597 68.5072C109.914 64.8738 115.376 62.8815 121.018 62.8815C126.661 62.8815 132.123 64.8738 136.44 68.5072C138.089 69.9128 138.359 72.0483 137.251 72.9403C136.088 73.8594 134.331 73.508 133.088 72.4538Z" fill="#2D2D2D"/>
<path d="M12.1497 90.1323V124.976C9.05264 124.976 6.08241 123.745 3.89244 121.555C1.70248 119.365 0.472168 116.395 0.472168 113.298V101.81C0.472168 98.7128 1.70248 95.7425 3.89244 93.5526C6.08241 91.3626 9.05264 90.1323 12.1497 90.1323Z" fill="#F9DCA6"/>
<path d="M155.146 90.1323V124.976C158.243 124.976 161.213 123.745 163.403 121.555C165.593 119.365 166.823 116.395 166.823 113.298V101.81C166.823 98.7128 165.593 95.7425 163.403 93.5526C161.213 91.3626 158.243 90.1323 155.146 90.1323Z" fill="#F9DCA6"/>
<path d="M159.146 90.8351C157.873 90.3709 156.528 90.1331 155.173 90.1323V124.976C156.528 124.975 157.873 124.737 159.146 124.273V90.8351Z" fill="#E1C59A"/>
<path d="M8.14917 90.8351C9.4226 90.3709 10.7674 90.1331 12.1228 90.1323V124.976C10.7674 124.975 9.4226 124.737 8.14917 124.273V90.8351Z" fill="#E1C59A"/>
<path d="M65.5637 147.25H101.569C102.427 145.762 102.875 144.074 102.867 142.357H64.2662C64.2583 144.074 64.706 145.762 65.5637 147.25Z" fill="#E6E7E8"/>
<rect x="40.1272" y="85.0774" width="10.8125" height="19.1923" rx="5.40627" fill="#2D2D2D"/>
<rect x="115.545" y="85.0774" width="10.8125" height="19.1923" rx="5.40627" fill="#2D2D2D"/>
<path d="M22.0161 95.6196C22.0161 92.6338 24.4366 90.2134 27.4224 90.2134H63.1038C66.0896 90.2134 68.5101 92.6338 68.5101 95.6196V105.621C68.5101 108.607 66.0896 111.028 63.1038 111.028H27.4224C24.4366 111.028 22.0161 108.607 22.0161 105.621V95.6196Z" stroke="#2D2D2D" stroke-width="5"/>
<path d="M70.4023 100H95.8117V101H70.4023V100Z" stroke="#2D2D2D" stroke-width="5"/>
<path d="M97.7039 95.6196C97.7039 92.6338 100.124 90.2134 103.11 90.2134H138.792C141.777 90.2134 144.198 92.6338 144.198 95.6196V105.621C144.198 108.607 141.777 111.028 138.792 111.028H103.11C100.124 111.028 97.7039 108.607 97.7039 105.621V95.6196Z" stroke="#2D2D2D" stroke-width="5"/>
<path d="M84.915 117.725C83.8106 118.422 82.4036 118.422 81.2992 117.725C78.4296 115.913 79.7132 111.476 83.1071 111.476C86.501 111.476 87.7847 115.913 84.915 117.725Z" fill="#E1C59A"/>
<path d="M84.915 115.415C83.8106 116.113 82.4036 116.113 81.2992 115.415C78.4296 113.603 79.7132 109.166 83.1071 109.166C86.501 109.166 87.7847 113.603 84.915 115.415Z" fill="#F9DCA6"/>
</svg>
