<svg width="45" height="50" viewBox="0 0 45 50" fill="none" xmlns="http://www.w3.org/2000/svg">
<path d="M44.0547 0.694908C43.6582 0.252504 43.0927 0 42.5 0H2.08681C1.49416 0 0.928634 0.252504 0.53214 0.694908C0.135646 1.13731 -0.0521671 1.72788 0.012524 2.31636L4.60768 43.6832C4.6995 44.5242 5.29424 45.2275 6.1081 45.4591L21.7174 49.9186C21.9053 49.9729 22.0993 50 22.2913 50C22.4833 50 22.6774 49.9729 22.8652 49.9186L38.4745 45.4591C39.2884 45.2275 39.8811 44.5242 39.975 43.6832L44.5722 2.31636C44.639 1.72788 44.4512 1.13731 44.0547 0.694908ZM33.8043 21.0225L32.8735 36.225L22.3602 39.6619L11.8468 36.225L11.4483 28.9545H16.7696L16.9032 32.26L22.3602 34.111L27.8172 32.26L28.2158 26.3126H16.5046L16.2396 21.0246H28.4829L28.8815 15.7366H10.5154L10.1169 10.4466H34.47L33.8043 21.0225Z" fill="#2D2D2D"/>
</svg>
