<svg width="45" height="50" viewBox="0 0 45 50" fill="none" xmlns="http://www.w3.org/2000/svg">
<path d="M44.358 0.352412C44.1542 0.127378 43.8612 0 43.5555 0H1.08778C0.782075 0 0.489107 0.127378 0.285302 0.352412C0.0772512 0.577446 -0.0246509 0.878906 0.00507084 1.18461L3.83065 44.0387C3.86886 44.4888 4.18306 44.8624 4.61615 44.9898L22.0202 49.9575C22.1136 49.9873 22.2155 50 22.3174 50C22.4193 50 22.517 49.9873 22.6146 49.9575L40.0314 44.9898C40.4645 44.8624 40.7744 44.4888 40.8169 44.0387L44.6382 1.18461C44.6679 0.878906 44.566 0.577446 44.358 0.352412ZM35.1995 15.1282H14.7512L15.2394 20.6607H34.707L33.2464 37.0117L22.3132 40.315L22.207 40.2811L11.4011 37.0075L10.8109 30.3456H16.1056L16.3349 32.9314L22.3768 34.1967L28.3084 32.9314L28.941 25.9341H10.4161L8.97671 9.84205H35.6708L35.1995 15.1282Z" fill="#2D2D2D"/>
</svg>
