<svg width="50" height="50" viewBox="0 0 50 50" fill="none" xmlns="http://www.w3.org/2000/svg">
<path d="M46.8285 0H3.17615C1.42299 0 0 1.42299 0 3.17615V46.8238C0 48.577 1.42299 50 3.17615 50H46.8238C48.577 50 50 48.577 50 46.8285V3.17615C50 1.42299 48.577 0 46.8285 0ZM27.381 38.3138C27.381 43.0711 24.5908 45.2381 20.5171 45.2381C16.8341 45.2381 14.1788 42.7688 13.0952 40.4762L16.8387 38.2115C17.5595 39.4903 18.657 40.4762 20.2381 40.4762C21.7494 40.4762 22.619 39.8856 22.619 37.5884V22.619H27.381V38.3138ZM37.7093 45.2381C33.4914 45.2381 31.0965 43.1129 29.7619 40.4762L33.3333 38.0952C34.3052 39.6856 35.3655 41.2063 37.607 41.2063C39.4903 41.2063 40.4762 40.2669 40.4762 38.9648C40.4762 37.4116 39.4531 36.8583 37.3837 35.9515L36.2491 35.4632C32.9706 34.0681 30.7896 32.3196 30.7896 28.6179C30.7896 25.2139 33.3891 22.619 37.4442 22.619C40.332 22.619 42.4061 23.6235 43.9035 26.2556L40.3692 28.5296C39.588 27.1298 38.7509 26.5811 37.4442 26.5811C36.1142 26.5811 35.2725 27.4275 35.2725 28.5296C35.2725 29.8921 36.1142 30.4408 38.0627 31.2872L39.1974 31.7755C43.0618 33.4263 45.2381 35.1144 45.2381 38.909C45.2381 42.9967 42.0247 45.2381 37.7093 45.2381Z" fill="white"/>
</svg>
